<svg xmlns="http://www.w3.org/2000/svg" enable-background="new 0 0 300 300" viewBox="0 0 300 300">
    <path d="M43.646 161.508c5.627 22.166 39.1 36.617 70.347 8.271 4.781-4.336 9.125-9.63 10.188-16.185 1.146-7.067-1.601-14.23-5.326-20.122-3.2-5.061-7.115-8.522-13.432-7.663-13.849 1.883-38.812 15.445-50.914 22.587-3.974 2.345-12.117 6.695-10.898 12.505-.026.187-.02.389.035.607zm69.88-30.217c5.665 5.791 9.53 15.98 7.218 23.902-1.877 6.435-7.289 11.632-12.684 15.746-.36-.922-2.054-1.857-2.577-6.882a1.529 1.529 0 0 0-.82-1.226c-.214-.7-.86-1.248-1.765-.97l-13.563 4.169-3.667-6.128c.062-3.306-.611-9.684-2.203-15.638a124.582 124.582 0 0 0 15.86 3.803c1.091.186 1.819-.7 1.875-1.543.22-.238.352-.571.311-1.012-.816-8.856 1.07-15.328.942-16.248 4.245-.923 8.324-.781 11.072 2.027zm-58.28 20.155c19.827-11.751 37.345-19.211 44.11-21.35-.862 4.905-1.279 9.784-.89 14.765a124.542 124.542 0 0 1-16.205-4.105c-1.439-.47-2.228 1.196-1.63 2.232-.276.32-.413.763-.263 1.298a61.94 61.94 0 0 1 2.27 14.55c-4.13-.542-8.478-1.482-12.6-1.463-1.817.009-3.109.126-4.145 1.818-1.563 2.549-.376 6.058-1.467 8.695-1.857 4.49-8.871-.548-12.035-1.97-1.747-.785-3.275 1.799-1.514 2.59 3.669 1.649 7.483 3.932 11.333 5.084 1.933.578 3.324.583 4.462-1.284 1.827-2.998-.368-8.319 1.612-11.076 1.724-2.4 12.242.328 15.103.702 4.033 6.741 3.794 6.557 4.438 6.777.318.42.842.665 1.506.46l13.28-4.081c.487 3.475 1.697 5.998 3.118 7.571-6.884 4.928-14.555 8.667-23.084 9.65-14.938 1.724-31.899-5.941-36.01-21.258.02-.179.01-.371-.047-.58-1.07-3.873 6.085-7.502 8.657-9.025zM251.29 146.886c-10.798-6.393-32.285-16.158-48.523-20.468-6.235-1.656-12.743-3.157-17.54 2.248-9.05 10.191-10.54 25.683-1.232 35.94 9.887 10.894 25.54 18.888 40.395 18.527 15.377-.375 31.187-10.027 34.348-25.785a1.576 1.576 0 0 0 0-.657c.616-4.347-4.147-7.85-7.449-9.805zm-63.005-17.091c6.072-5.195 19.158.933 25.754 3.28 1.828.65 3.642 1.34 5.446 2.05-1.53 2.526-3.125 5.013-4.652 7.542-.623 1.03.146 2.004 1.055 2.195.196.185 1.81 1.523 7.768 6.49l-1.42 1.657-9.542-2.898c-.973-.296-1.648.365-1.806 1.14a61.393 61.393 0 0 0-12.085 10.8c-7.641-12.084-7.075-11.322-7.523-11.586-.322-.456-.865-.767-1.554-.647l-9.1 1.581c-.853-7.268 2.32-17.037 7.66-21.604zm8.419 41.418c-6.182-4.09-13.201-9.485-15.468-16.889l8.229-1.43 7.656 12.108c.54.854 1.51.841 2.162.402.35.011.708-.134 1.014-.502 4.951-5.973 8.627-8.485 12.783-11.539l9.594 2.915c1.053.32 1.76-.478 1.838-1.329l1.442-1.682c2.757 2.3 5.515 4.598 8.273 6.897-8.576 9.41-8.08 8.777-8.224 9.22-.388.432-.578 1.061-.288 1.724 1.314 3.003 3.084 5.726 5.214 8.199-12.252 2.557-23.702-1.133-34.225-8.094zm37.343 7.31c-.239-.705-2.768-2.724-5.262-7.94l8.369-9.181c.557-.612.483-1.352.116-1.885.044-.38-.087-.778-.489-1.113l-18.577-15.488c1.154-1.878 3.837-6.16 4.082-6.644a249.503 249.503 0 0 1 14.629 6.602c3.718 1.82 20.115 7.802 18.87 13.44a1.575 1.575 0 0 0-.02.582c-2.374 11.07-11.32 18.538-21.718 21.628z"
          fill="#607B96" class="color000000 svgShape"></path>
    <path d="M239.447 89.62c-6.79-.7-14.829-1.606-21.554-.028-5.11 1.199-7.266 5.592-9.011 10.117-1.063 2.756-3.17 7.145.748 8.433.863.284 1.82.278 2.77.161 1.778 2.086 4.196 4.86 5.098 6.005 12.023-2.423 20.275-6.704 32.536-6.476a146.991 146.991 0 0 0 6.177 29.83c-24.829-14.538-51.402-27.442-80.05-29.66-.535-1.342-2.907-1.16-2.89.561 0 .098-.01.197-.011.295-1.892-.117-4.617.063-4.794.076l.565 5.907-9.194 1.12c-.956 5.27-1.668 11.432 2.021 15.316 1.005 1.059 3.998 1.97 4.64 3.28 1.154 2.354-1.933 5.005-3.004 7.397-4.605 10.28-6.91 26.85.754 35.104 8.667 9.333 20.334 16.083 30 19.75 10.532 3.995 19.09 4.784 30.25 3.25 4.654-.64 10.284-3.424 14.694-6.892 16.588-6.354 26.72-26.612 37.549-39.885.785.047 1.573-.426 1.507-1.435-.952-14.704-4.236-29.167-10.51-42.54-6.742-14.37-11.357-17.94-28.291-19.685zm-26.2 7.502c4.112-7.513 17.04-5.302 24.375-4.674 9.233.79 18.009 2.307 23.391 10.6 8.665 13.35 12.697 30.202 14.025 46.006-4.49-2.77-9.037-5.561-13.644-8.32.026-.164.034-.338.004-.526-1.37-8.314-2.488-16.664-3.753-24.994-.467-3.072-.253-8.025-2.31-10.628-1.62-2.049-4.775-2.147-7.11-2.482-15.924-2.286-29.516 1.982-34.55 2.936-5.192.984-1.72-5.56-.428-7.918zm-13.91 88.978c-6.78-2.984-13.194-6.765-19.27-10.988-7.13-4.954-13.143-10.087-12.663-19.574.361-7.157 4.313-13.239 5.141-20.216.53-4.46-.217-5.897-3.554-7.903-.105-.366.06.162-2.782-6.233 2.528-.033 5.063.183 7.585-.056 1.034-.098 1.569-1.098 1.447-1.899-.311-2.038.474-3.84.904-8.23 35.643 2.758 68.074 22.551 97.845 40.931-18.357 22.963-28.916 54.303-74.654 34.168zM115.755 80.716c1.75 5.117 3.5 10.235 5.248 15.353.622 1.816 3.52 1.036 2.894-.798l-5.249-15.353c-.62-1.816-3.519-1.036-2.893.798zM150.003 81.574l-3.512-31.7c-.21-1.898-3.213-1.92-3 0l3.512 31.7c.21 1.897 3.213 1.919 3 0zM165.986 93.898a502.387 502.387 0 0 0 18.85-23.791c1.153-1.55-1.45-3.047-2.59-1.515a489.903 489.903 0 0 1-18.381 23.185c-1.237 1.467.874 3.6 2.12 2.12zM21.748 171.558c6.654 9.254 13.139 13.003 21.5 20.75 9.185 8.51 20.978 15.155 33.334 13.416 22.5-3.166 31.833-9.833 48.833-22.166 5.772-4.187 11.062-12.015 11.996-21.638 2.227-10.554-3.948-19.928-5.744-26.246 1.582-2.376 8.73-1.876 7.941-4.674-.499-1.769-2.624-2.708-3.102-4.482-.842-3.124 2.054-6.015 4.34-8.305 1.402-1.405-3.249-5.546-6.527-6.089-1.476-.244-6.65-2.334-8.757-2.575-.038-.19-.088-.378-.12-.57-.168-1.022-1.08-1.257-1.84-.966-29.274 3.819-55.734 18.727-80.316 35.032 1.098-10.227 2.303-25.24 2.807-27.994 9.94-3.415 20.229-2.046 30.155 1.757 2.792-1.76 6.813-5.21 9.784-7.783.313.025.626.053.939.065 4.547.17 5.147-3.288 3.78-6.969-1.432-3.856-3.72-8.172-7.752-9.75-5.967-2.332-14.627-.616-20.785.185-15.106 1.965-22.137 4.167-28.277 17.475-7.61 12.987-11.974 27.829-11.894 42.891l1.895 2.386c-.015.573-.034 1.145-.04 1.718-.013 1.008.798 1.485 1.581 1.44l.143.159c-1.369 3.6-2.376 10.514-3.874 12.933zm101.085-60.435c.421 1.792 1.015 3.543 1.315 5.363.032.192.096.35.174.49-.02.604.296 1.194 1.07 1.368 2.21.498 4.504.41 6.745.666-.647.623-1.238 1.293-1.69 2.03-.878.728-1.795 1.436-2.39 2.508-1.128 2.031.411 3.476 2.213 4.486-1.932 1.44-2.279 2.557-1.831 5.825 1.798 13.133 15.812 24.659-4.125 40.474-18.469 14.65-46.11 28.453-65.893 15.458-12.556-8.248-20.418-21.762-30.263-32.829 28.508-19.72 59.618-41.012 94.675-45.839zm-64.75-14.937A109.384 109.384 0 0 1 72.33 94.69c4.47-.182 9.355-.916 12.56 2.856 1.125 1.322 1.886 2.917 2.583 4.495 1.569 3.554-.263 3.542-3.15 3.544-3.88.003-8.019-1.19-11.931-1.38-7.88-.38-16.061.21-23.712 2.227-6.486 1.71-5.576 7.587-6.145 13.34-.01.1-2.455 25.309-2.451 25.409a1204.832 1204.832 0 0 0-13.12 8.969c.513-15.502 3.629-31.484 10.854-45.278 4.382-8.365 11.388-11.148 20.265-12.687z"
          fill="#607B96" class="color000000 svgShape"></path>
    <path d="M265.248 152.558c-1.93 0-1.933 3 0 3 1.93 0 1.934-3 0-3zM34.688 160.118a1.52 1.52 0 0 0 2.121 0l.5-.5a1.524 1.524 0 0 0 0-2.12 1.52 1.52 0 0 0-2.121 0l-.5.5a1.524 1.524 0 0 0 0 2.12zM142.955 222.426c-13.56-17.652-12.563-16.617-13.374-16.788-.479-.31.265-.178-12.44-1-.078-.005-.147.002-.217.007-.661-.488-1.61-.503-2.03.453-.608 1.385-1.24 2.76-1.86 4.14-1.888-.99-3.748-2.034-5.656-2.987-.713-.77-2.238-.776-2.57.541-1.727 6.826-3.774 13.566-5.5 20.392-.14.552.017 1.008.315 1.332-.075 2.5-.556 8.26-.541 10.042 3.501 4.998 7.58 8.792 12 13 6.558-.432 14.54-1.444 22.333-1.834 1.517-3.239 2.983-8.093 4.5-11.333 1.742-.37 4.59-1.297 6.333-1.667 1.667-3.5 2.153-3.867 3-7.166-.707-.994-2.809-4.17-4.118-5.847.186-.372.178-.826-.175-1.285zm-25.923-14.806c.217.029-1.18-.065 11.367.746l3.827 4.98c-4.866 2.9-9.31 6.46-14.103 9.474-.435-3.832-1.422-7.492-2.95-11.064.611-1.383 1.24-2.757 1.86-4.136zm-9.842 1.903c1.715.9 3.409 1.839 5.134 2.719-.047.952 2.439 4.79 2.96 12.334.03.435.212.767.468 1.006.272.822 1.182 1.457 2.15.89 1.798-1.053 3.533-2.205 5.247-3.386l2.59 1.904c-.317 1.954-.916 3.788-1.887 5.527-.942 1.687 1.649 3.201 2.59 1.514a18.96 18.96 0 0 0 2.232-6.48c.672-.658.556-1.697-.31-2.334l-2.63-1.934c2.728-1.923 5.453-3.854 8.33-5.544l5.968 7.768c-.416 1.87-.89 3.727-1.308 5.597-1.264.316-2.517.675-3.79.958-.724.16-1.05.688-1.071 1.251-1.297 2.49-2.76 4.887-3.997 7.407-5.288.584-10.536 1.472-15.824 2.057l-11.608-13.682c1.51-5.878 3.221-11.7 4.756-17.572zM177.748 228.391c-.39-.297-1.134-.879-1.82-1.376-.058-.73-.17-1.354-.77-1.778-10.69-7.534-9.47-6.96-10.642-6.673l-6.245 1.508c-.863-.155-1.619.444-1.736 1.475-.057.51-.12 1.018-.185 1.527-.648-.125-2.215-.434-2.836-.512-.902-.338-2.094.1-2.027 1.332.702 13-.196 12.067 1.592 13.203.171 1.618.249 4.167.503 4.96 2.681 2.074 6.628 3.332 9.666 4.834 3.407-1.31 6.5-3.167 10.334-6 .27-1.968.896-3.698 1.166-5.667.863-.483 1.97-1.016 2.834-1.5-.096-1.888.262-3.444.166-5.333zm-12.961-6.807 8.165 5.756c.036.476.073.951.103 1.427-3.613-.683-7.851.687-11.213-.076a22.21 22.21 0 0 0-2.682-4.048c.067-.584.14-1.168.212-1.751l5.415-1.308zm-4.794 10.19c.566 1.466 2.623 1.2 2.952.058 2.66.13 5.525-.466 8.067-.317-.063.191-.09.392-.076.594-.26 1.385-.588 2.756-.819 4.146-2.488 1.089-4.919 2.303-7.399 3.41l-7.823-4.967c-.14-2.969-.202-5.941-.325-8.912.666.13 1.334.25 2.003.369.256.413 2.133 2.284 3.42 5.62z"
          fill="#607B96" class="color000000 svgShape"></path>
</svg>
